# Blender v2.90.1 OBJ File: ''
# www.blender.org
mtllib sidewall.mtl
o Cube
v -0.032647 -0.333589 0.026649
v -0.032647 0.999093 0.026649
v -0.032647 -0.333589 -1.973351
v -0.032647 1.666411 0.026649
v -0.032647 -0.333589 0.026649
v -2.032647 1.666411 -1.973351
v -2.032647 -0.333589 -1.973351
v -2.032647 1.666411 0.026649
v -2.032647 0.333078 -1.973351
v -2.032647 -0.333589 0.026649
v -2.032647 0.999744 -1.973351
v -2.032648 0.999744 0.026649
v -2.032648 0.333078 0.026649
v -0.032647 0.333077 0.026649
v -0.032647 0.999744 0.026649
v -0.032647 0.333078 -1.973351
v -0.032647 0.999744 -1.973351
v -0.032647 1.666411 -1.973351
v -2.032647 0.999744 -0.293282
v -2.032647 0.333078 -0.293282
v -0.032647 0.333077 -0.293282
v -0.032647 0.999744 -0.293282
v -2.032648 0.999744 -0.292299
v -2.032648 0.333078 -0.292299
v -0.032647 0.333077 -0.292299
v -0.032647 0.999744 -0.292299
v -2.032647 0.333077 -1.622784
v -2.032647 0.999744 -1.622784
v -0.032647 0.333077 -1.622784
v -0.032647 0.999744 -1.622784
vt 0.625000 0.000000
vt 0.375000 0.250000
vt 0.375000 0.000000
vt 0.625000 0.250000
vt 0.375000 0.500000
vt 0.375000 0.250000
vt 0.625000 0.500000
vt 0.541667 0.750000
vt 0.541667 0.500000
vt 0.708333 0.500000
vt 0.625000 0.750000
vt 0.625000 0.500000
vt 0.208333 0.500000
vt 0.125000 0.750000
vt 0.125000 0.500000
vt 0.458333 0.750000
vt 0.375000 1.000000
vt 0.375000 0.750000
vt 0.541667 0.750000
vt 0.625000 1.000000
vt 0.541667 1.000000
vt 0.375000 0.500000
vt 0.291667 0.750000
vt 0.291667 0.500000
vt 0.458333 0.500000
vt 0.458333 0.750000
vt 0.458333 0.750000
vt 0.375000 0.750000
vt 0.375000 0.500000
vt 0.875000 0.500000
vt 0.791667 0.750000
vt 0.791667 0.500000
vt 0.458333 1.000000
vt 0.541667 1.000000
vt 0.458333 1.000000
vt 0.541667 0.500000
vt 0.541667 0.500000
vt 0.458333 0.750000
vt 0.458333 0.500000
vt 0.541667 0.750000
vt 0.458333 0.500000
vt 0.708333 0.500000
vt 0.791667 0.750000
vt 0.708333 0.750000
vt 0.708333 0.750000
vt 0.791667 0.500000
vt 0.000000 0.000000
vt 0.000000 0.000000
vt 0.000000 0.000000
vt 0.000000 0.000000
vt 0.000000 0.000000
vt 0.541667 1.000000
vt 0.625000 0.250000
vt 0.625000 0.500000
vt 0.625000 0.750000
vt 0.208333 0.750000
vt 0.458333 1.000000
vt 0.625000 0.750000
vt 0.375000 0.750000
vt 0.875000 0.750000
vt 0.541667 0.750000
vt 0.000000 0.000000
vn 0.0000 -1.0000 -0.0000
vn 0.0000 1.0000 -0.0000
vn 0.0000 0.0000 1.0000
vn 0.0000 0.0000 -1.0000
vn -1.0000 -0.0000 -0.0000
vn 1.0000 -0.0000 0.0000
vn 1.0000 -0.0000 0.0002
usemtl Material
s off
f 3/1/1 10/2/1 7/3/1
f 6/4/2 4/5/2 18/6/2
f 4/7/3 12/8/3 15/9/3
f 9/10/4 3/11/4 7/12/4
f 13/13/5 7/14/5 10/15/5
f 16/16/6 5/17/6 3/18/6
f 17/19/6 4/20/6 15/21/6
f 8/22/5 11/23/5 12/24/5
f 14/25/2 20/26/2 13/27/2
f 14/25/3 10/28/3 5/29/3
f 6/30/4 17/31/4 11/32/4
f 21/33/6 26/34/6 25/35/6
f 12/8/1 22/36/1 15/9/1
f 26/37/3 24/38/3 25/39/3
f 19/40/2 26/37/2 22/36/2
f 21/41/1 24/38/1 20/26/1
f 27/42/4 30/43/4 29/44/4
f 9/10/2 29/44/2 16/45/2
f 17/31/1 28/46/1 11/32/1
f 23/47/7 20/48/7 19/49/7
f 24/50/7 20/48/7 23/47/7
f 26/37/1 28/46/1 30/43/1
f 20/26/1 29/44/1 21/41/1
f 28/51/5 20/48/5 23/47/5
f 29/44/6 22/52/6 21/41/6
f 3/1/1 5/53/1 10/2/1
f 6/4/2 8/54/2 4/5/2
f 4/7/3 8/55/3 12/8/3
f 9/10/4 16/45/4 3/11/4
f 13/13/5 9/56/5 7/14/5
f 16/16/6 14/57/6 5/17/6
f 17/19/6 18/58/6 4/20/6
f 8/22/5 6/59/5 11/23/5
f 14/25/2 21/41/2 20/26/2
f 14/25/3 13/27/3 10/28/3
f 6/30/4 18/60/4 17/31/4
f 21/33/6 22/52/6 26/34/6
f 12/8/1 19/40/1 22/36/1
f 26/37/3 23/61/3 24/38/3
f 19/40/2 23/61/2 26/37/2
f 21/41/1 25/39/1 24/38/1
f 27/42/4 28/46/4 30/43/4
f 9/10/2 27/42/2 29/44/2
f 17/31/1 30/43/1 28/46/1
f 26/37/1 23/61/1 28/46/1
f 20/26/1 27/42/1 29/44/1
f 28/51/5 27/62/5 20/48/5
f 29/44/6 30/43/6 22/52/6
