# Blender v2.92.0 OBJ File: ''
# www.blender.org
mtllib untitled.mtl
o Cylinder
v 0.014578 1.666411 -0.649446
v 0.107921 -0.333589 -0.636425
v 0.014578 -0.333589 -0.649446
v 0.107921 1.666411 -0.636425
v 0.197678 -0.333589 -0.597863
v 0.197678 1.666411 -0.597863
v 0.280397 -0.333589 -0.535242
v 0.280397 1.666411 -0.535242
v 0.352902 -0.333589 -0.450968
v 0.352902 1.666411 -0.450968
v 0.412405 -0.333589 -0.348280
v 0.412405 1.666411 -0.348280
v 0.456620 -0.333589 -0.231124
v 0.456620 1.666411 -0.231124
v 0.483847 -0.333589 -0.104003
v 0.483847 1.666411 -0.104003
v 0.493040 -0.333589 0.028199
v 0.493040 1.666411 0.028199
v 0.483847 -0.333589 0.160401
v 0.483847 1.666411 0.160401
v 0.456620 -0.333589 0.287523
v 0.456620 1.666411 0.287523
v 0.412405 -0.333589 0.404679
v 0.412405 1.666411 0.404679
v 0.352902 -0.333589 0.507367
v 0.352902 1.666411 0.507367
v 0.280397 -0.333589 0.591641
v 0.280397 1.666411 0.591641
v 0.197678 -0.333589 0.654262
v 0.197678 1.666411 0.654262
v 0.107921 -0.333589 0.692824
v 0.107921 1.666411 0.692824
v 0.014578 -0.333589 0.705844
v 0.014578 1.666411 0.705844
v -0.078766 -0.333589 0.692824
v -0.078766 1.666411 0.692824
v -0.168522 -0.333589 0.654262
v -0.168522 1.666411 0.654262
v -0.251242 -0.333589 0.591640
v -0.251242 1.666411 0.591640
v -0.323746 -0.333589 0.507366
v -0.323746 1.666411 0.507366
v -0.383249 -0.333589 0.404678
v -0.383249 1.666411 0.404678
v -0.427464 -0.333589 0.287522
v -0.427464 1.666411 0.287522
v -0.454691 -0.333589 0.160401
v -0.454691 1.666411 0.160401
v -0.463884 -0.333589 0.028199
v -0.463884 1.666411 0.028199
v -0.454691 -0.333589 -0.104004
v -0.454691 1.666411 -0.104004
v -0.427463 -0.333589 -0.231125
v -0.427463 1.666411 -0.231125
v -0.383249 -0.333589 -0.348281
v -0.383249 1.666411 -0.348281
v -0.323746 -0.333589 -0.450969
v -0.323746 1.666411 -0.450969
v -0.251241 -0.333589 -0.535243
v -0.251241 1.666411 -0.535243
v -0.168521 -0.333589 -0.597864
v -0.168521 1.666411 -0.597864
v -0.078765 -0.333589 -0.636425
v -0.078765 1.666411 -0.636425
vt 1.000000 1.000000
vt 0.968750 0.500000
vt 1.000000 0.500000
vt 0.968750 1.000000
vt 0.937500 0.500000
vt 0.937500 1.000000
vt 0.906250 0.500000
vt 0.906250 1.000000
vt 0.875000 0.500000
vt 0.875000 1.000000
vt 0.843750 0.500000
vt 0.843750 1.000000
vt 0.812500 0.500000
vt 0.812500 1.000000
vt 0.781250 0.500000
vt 0.781250 1.000000
vt 0.750000 0.500000
vt 0.750000 1.000000
vt 0.718750 0.500000
vt 0.718750 1.000000
vt 0.687500 0.500000
vt 0.687500 1.000000
vt 0.656250 0.500000
vt 0.656250 1.000000
vt 0.625000 0.500000
vt 0.625000 1.000000
vt 0.593750 0.500000
vt 0.593750 1.000000
vt 0.562500 0.500000
vt 0.562500 1.000000
vt 0.531250 0.500000
vt 0.531250 1.000000
vt 0.500000 0.500000
vt 0.500000 1.000000
vt 0.468750 0.500000
vt 0.468750 1.000000
vt 0.437500 0.500000
vt 0.437500 1.000000
vt 0.406250 0.500000
vt 0.406250 1.000000
vt 0.375000 0.500000
vt 0.375000 1.000000
vt 0.343750 0.500000
vt 0.343750 1.000000
vt 0.312500 0.500000
vt 0.312500 1.000000
vt 0.281250 0.500000
vt 0.281250 1.000000
vt 0.250000 0.500000
vt 0.250000 1.000000
vt 0.218750 0.500000
vt 0.218750 1.000000
vt 0.187500 0.500000
vt 0.187500 1.000000
vt 0.156250 0.500000
vt 0.156250 1.000000
vt 0.125000 0.500000
vt 0.125000 1.000000
vt 0.093750 0.500000
vt 0.093750 1.000000
vt 0.062500 0.500000
vt 0.062500 1.000000
vt 0.031250 0.500000
vt 0.031250 1.000000
vt 0.000000 0.500000
vt 0.616663 0.449553
vt 0.658156 0.471731
vt 0.883337 0.449553
vt 0.000000 1.000000
vt 0.703179 0.485389
vt 0.750000 0.490000
vt 0.796822 0.485388
vt 0.841844 0.471731
vt 0.919706 0.419706
vt 0.580295 0.419706
vt 0.949553 0.383337
vt 0.550447 0.383337
vt 0.971731 0.341844
vt 0.985388 0.296822
vt 0.528269 0.341844
vt 0.990000 0.250000
vt 0.510000 0.250000
vt 0.985388 0.203178
vt 0.514611 0.203179
vt 0.971731 0.158156
vt 0.949553 0.116663
vt 0.528269 0.158156
vt 0.919706 0.080294
vt 0.580294 0.080294
vt 0.883337 0.050447
vt 0.616663 0.050447
vt 0.841844 0.028269
vt 0.796822 0.014612
vt 0.658156 0.028269
vt 0.750000 0.010000
vt 0.703178 0.014612
vt 0.550447 0.116663
vt 0.514612 0.296822
vn 0.1382 0.0000 -0.9904
vn 0.3947 0.0000 -0.9188
vn 0.6036 0.0000 -0.7973
vn 0.7581 0.0000 -0.6522
vn 0.8652 0.0000 -0.5014
vn 0.9356 0.0000 -0.3531
vn 0.9778 0.0000 -0.2094
vn 0.9976 0.0000 -0.0694
vn 0.9976 0.0000 0.0694
vn 0.9778 -0.0000 0.2094
vn 0.9356 -0.0000 0.3531
vn 0.8652 -0.0000 0.5014
vn 0.7581 -0.0000 0.6522
vn 0.6036 -0.0000 0.7973
vn 0.3947 -0.0000 0.9188
vn 0.1381 -0.0000 0.9904
vn -0.1381 -0.0000 0.9904
vn -0.3947 -0.0000 0.9188
vn -0.6036 -0.0000 0.7973
vn -0.7581 -0.0000 0.6522
vn -0.8652 -0.0000 0.5014
vn -0.9356 -0.0000 0.3531
vn -0.9778 -0.0000 0.2094
vn -0.9976 -0.0000 0.0694
vn -0.9976 0.0000 -0.0694
vn -0.9778 0.0000 -0.2094
vn -0.9356 0.0000 -0.3531
vn -0.8652 0.0000 -0.5014
vn -0.7581 0.0000 -0.6522
vn -0.6036 0.0000 -0.7973
vn -0.3947 0.0000 -0.9188
vn -0.1382 0.0000 -0.9904
vn 0.0000 -1.0000 0.0000
vn 0.0000 1.0000 -0.0000
usemtl None
s 1
f 1/1/1 2/2/1 3/3/1
f 4/4/2 5/5/2 2/2/2
f 6/6/3 7/7/3 5/5/3
f 8/8/4 9/9/4 7/7/4
f 10/10/5 11/11/5 9/9/5
f 12/12/6 13/13/6 11/11/6
f 14/14/7 15/15/7 13/13/7
f 16/16/8 17/17/8 15/15/8
f 18/18/9 19/19/9 17/17/9
f 20/20/10 21/21/10 19/19/10
f 22/22/11 23/23/11 21/21/11
f 24/24/12 25/25/12 23/23/12
f 26/26/13 27/27/13 25/25/13
f 28/28/14 29/29/14 27/27/14
f 30/30/15 31/31/15 29/29/15
f 32/32/16 33/33/16 31/31/16
f 34/34/17 35/35/17 33/33/17
f 36/36/18 37/37/18 35/35/18
f 38/38/19 39/39/19 37/37/19
f 40/40/20 41/41/20 39/39/20
f 42/42/21 43/43/21 41/41/21
f 44/44/22 45/45/22 43/43/22
f 46/46/23 47/47/23 45/45/23
f 48/48/24 49/49/24 47/47/24
f 50/50/25 51/51/25 49/49/25
f 52/52/26 53/53/26 51/51/26
f 54/54/27 55/55/27 53/53/27
f 56/56/28 57/57/28 55/55/28
f 58/58/29 59/59/29 57/57/29
f 60/60/30 61/61/30 59/59/30
f 62/62/31 63/63/31 61/61/31
f 64/64/32 3/65/32 63/63/32
f 59/66/33 61/67/33 7/68/33
f 10/10/34 8/8/34 58/58/34
f 10/10/5 12/12/5 11/11/5
f 12/12/6 14/14/6 13/13/6
f 14/14/7 16/16/7 15/15/7
f 16/16/8 18/18/8 17/17/8
f 18/18/9 20/20/9 19/19/9
f 20/20/10 22/22/10 21/21/10
f 22/22/11 24/24/11 23/23/11
f 24/24/12 26/26/12 25/25/12
f 26/26/13 28/28/13 27/27/13
f 28/28/14 30/30/14 29/29/14
f 30/30/15 32/32/15 31/31/15
f 32/32/16 34/34/16 33/33/16
f 34/34/17 36/36/17 35/35/17
f 36/36/18 38/38/18 37/37/18
f 38/38/19 40/40/19 39/39/19
f 6/6/34 4/4/34 62/62/34
f 4/4/34 1/69/34 64/64/34
f 62/62/34 4/4/34 64/64/34
f 62/62/34 60/60/34 6/6/34
f 60/60/34 58/58/34 8/8/34
f 6/6/34 60/60/34 8/8/34
f 58/58/34 56/56/34 10/10/34
f 56/56/34 54/54/34 12/12/34
f 10/10/34 56/56/34 12/12/34
f 54/54/34 52/52/34 16/16/34
f 52/52/34 50/50/34 18/18/34
f 50/50/34 48/48/34 20/20/34
f 48/48/34 46/46/34 22/22/34
f 46/46/34 44/44/34 22/22/34
f 44/44/34 42/42/34 24/24/34
f 22/22/34 44/44/34 24/24/34
f 42/42/34 40/40/34 26/26/34
f 40/40/34 38/38/34 28/28/34
f 26/26/34 40/40/34 28/28/34
f 38/38/34 36/36/34 30/30/34
f 36/36/34 34/34/34 32/32/34
f 30/30/34 36/36/34 32/32/34
f 30/30/34 28/28/34 38/38/34
f 26/26/34 24/24/34 42/42/34
f 22/22/34 20/20/34 48/48/34
f 20/20/34 18/18/34 50/50/34
f 18/18/34 16/16/34 52/52/34
f 16/16/34 14/14/34 54/54/34
f 14/14/34 12/12/34 54/54/34
f 1/1/1 4/4/1 2/2/1
f 4/4/2 6/6/2 5/5/2
f 6/6/3 8/8/3 7/7/3
f 8/8/4 10/10/4 9/9/4
f 40/40/20 42/42/20 41/41/20
f 42/42/21 44/44/21 43/43/21
f 44/44/22 46/46/22 45/45/22
f 46/46/23 48/48/23 47/47/23
f 48/48/24 50/50/24 49/49/24
f 50/50/25 52/52/25 51/51/25
f 52/52/26 54/54/26 53/53/26
f 54/54/27 56/56/27 55/55/27
f 56/56/28 58/58/28 57/57/28
f 58/58/29 60/60/29 59/59/29
f 60/60/30 62/62/30 61/61/30
f 62/62/31 64/64/31 63/63/31
f 64/64/32 1/69/32 3/65/32
f 63/70/33 3/71/33 2/72/33
f 2/72/33 5/73/33 63/70/33
f 5/73/33 7/68/33 61/67/33
f 63/70/33 5/73/33 61/67/33
f 7/68/33 9/74/33 57/75/33
f 9/74/33 11/76/33 55/77/33
f 11/76/33 13/78/33 55/77/33
f 13/78/33 15/79/33 53/80/33
f 55/77/33 13/78/33 53/80/33
f 15/79/33 17/81/33 49/82/33
f 17/81/33 19/83/33 47/84/33
f 19/83/33 21/85/33 47/84/33
f 21/85/33 23/86/33 45/87/33
f 47/84/33 21/85/33 45/87/33
f 23/86/33 25/88/33 41/89/33
f 25/88/33 27/90/33 39/91/33
f 27/90/33 29/92/33 39/91/33
f 29/92/33 31/93/33 37/94/33
f 39/91/33 29/92/33 37/94/33
f 31/93/33 33/95/33 35/96/33
f 35/96/33 37/94/33 31/93/33
f 39/91/33 41/89/33 25/88/33
f 41/89/33 43/97/33 23/86/33
f 43/97/33 45/87/33 23/86/33
f 47/84/33 49/82/33 17/81/33
f 49/82/33 51/98/33 15/79/33
f 51/98/33 53/80/33 15/79/33
f 55/77/33 57/75/33 9/74/33
f 57/75/33 59/66/33 7/68/33
o Cylinder.001
v 0.368783 2.162826 -0.035602
v 0.374072 1.658749 0.030204
v 0.368783 1.658749 -0.035602
v 0.374072 2.162826 0.030204
v 0.365534 1.658749 0.096035
v 0.365534 2.162826 0.096035
v 0.343498 1.658749 0.159362
v 0.343498 2.162826 0.159362
v 0.308811 1.658749 0.217751
v 0.308811 2.162826 0.217751
v 0.262806 1.658749 0.268958
v 0.262806 2.162826 0.268958
v 0.207250 1.658749 0.311016
v 0.207250 2.162826 0.311016
v 0.144279 1.658749 0.342308
v 0.144279 2.162826 0.342308
v 0.076313 1.658749 0.361632
v 0.076313 2.162826 0.361632
v 0.005963 1.658749 0.368244
v 0.005963 2.162826 0.368244
v -0.064067 1.658749 0.361892
v -0.064067 2.162826 0.361892
v -0.131085 1.658749 0.342818
v -0.131085 2.162826 0.342818
v -0.192517 1.658749 0.311757
v -0.192517 2.162826 0.311757
v -0.246002 1.658749 0.269901
v -0.246002 2.162826 0.269901
v -0.289483 1.658749 0.218860
v -0.289483 2.162826 0.218860
v -0.321291 1.658749 0.160594
v -0.321291 2.162826 0.160594
v -0.340202 1.658749 0.097343
v -0.340202 2.162826 0.097343
v -0.345491 1.658749 0.031537
v -0.345491 2.162826 0.031537
v -0.336953 1.658749 -0.034294
v -0.336953 2.162826 -0.034294
v -0.314917 1.658749 -0.097621
v -0.314917 2.162826 -0.097621
v -0.280230 1.658749 -0.156010
v -0.280230 2.162826 -0.156010
v -0.234225 1.658749 -0.207217
v -0.234225 2.162826 -0.207217
v -0.178669 1.658749 -0.249275
v -0.178669 2.162826 -0.249275
v -0.115698 1.658749 -0.280567
v -0.115698 2.162826 -0.280567
v -0.047731 1.658749 -0.299891
v -0.047731 2.162826 -0.299891
v 0.022618 1.658749 -0.306503
v 0.022618 2.162826 -0.306503
v 0.092648 1.658749 -0.300151
v 0.092648 2.162826 -0.300151
v 0.159667 1.658749 -0.281077
v 0.159667 2.162826 -0.281077
v 0.221099 1.658749 -0.250016
v 0.221099 2.162826 -0.250016
v 0.274583 1.658749 -0.208160
v 0.274583 2.162826 -0.208160
v 0.318064 1.658749 -0.157118
v 0.318064 2.162826 -0.157118
v 0.349872 1.658749 -0.098852
v 0.349872 2.162826 -0.098852
vt 1.000000 1.000000
vt 0.966469 0.001901
vt 0.997719 0.001901
vt 0.968750 1.000000
vt 0.935219 0.001901
vt 0.937500 1.000000
vt 0.903969 0.001901
vt 0.906250 1.000000
vt 0.872719 0.001901
vt 0.875000 1.000000
vt 0.841469 0.001901
vt 0.843750 1.000000
vt 0.810219 0.001901
vt 0.812500 1.000000
vt 0.778969 0.001901
vt 0.781250 1.000000
vt 0.747719 0.001901
vt 0.750000 1.000000
vt 0.716469 0.001901
vt 0.718750 1.000000
vt 0.685219 0.001901
vt 0.687500 1.000000
vt 0.653969 0.001901
vt 0.656250 1.000000
vt 0.622719 0.001901
vt 0.625000 1.000000
vt 0.591469 0.001901
vt 0.593750 1.000000
vt 0.560219 0.001901
vt 0.562500 1.000000
vt 0.528969 0.001901
vt 0.531250 1.000000
vt 0.497719 0.001901
vt 0.500000 1.000000
vt 0.466469 0.001901
vt 0.468750 1.000000
vt 0.435219 0.001901
vt 0.437500 1.000000
vt 0.403969 0.001901
vt 0.406250 1.000000
vt 0.372719 0.001901
vt 0.375000 1.000000
vt 0.341469 0.001901
vt 0.343750 1.000000
vt 0.310219 0.001901
vt 0.312500 1.000000
vt 0.278969 0.001901
vt 0.281250 1.000000
vt 0.247719 0.001901
vt 0.250000 1.000000
vt 0.216469 0.001901
vt 0.218750 1.000000
vt 0.185219 0.001901
vt 0.187500 1.000000
vt 0.153969 0.001901
vt 0.156250 1.000000
vt 0.122719 0.001901
vt 0.125000 1.000000
vt 0.091469 0.001901
vt 0.093750 1.000000
vt 0.060219 0.001901
vt 0.028269 0.341844
vt 0.158156 0.028269
vt 0.471731 0.158156
vt 0.062500 1.000000
vt 0.028969 0.001901
vt 0.031250 1.000000
vt -0.002281 0.001901
vt 0.985388 0.296822
vt 0.796822 0.014612
vt 0.514611 0.203179
vt 0.000000 1.000000
vt 0.339563 -0.026368
vt 0.294541 -0.012711
vt 0.247719 -0.008099
vt 0.200898 -0.012711
vt 0.155876 -0.026368
vt 0.116663 0.449553
vt 0.080295 0.419706
vt 0.050447 0.383337
vt 0.014612 0.296822
vt 0.010000 0.250000
vt 0.014611 0.203179
vt 0.028269 0.158156
vt 0.050447 0.116663
vt 0.080294 0.080294
vt 0.116663 0.050447
vt 0.203178 0.014612
vt 0.250000 0.010000
vt 0.296822 0.014612
vt 0.341844 0.028269
vt 0.383337 0.050447
vt 0.419706 0.080294
vt 0.449553 0.116663
vt 0.485388 0.203178
vt 0.490000 0.250000
vt 0.485388 0.296822
vt 0.471731 0.341844
vt 0.449553 0.383337
vt 0.419706 0.419706
vt 0.383337 0.449553
vt 0.700898 -0.012711
vt 0.747719 -0.008099
vt 0.794541 -0.012711
vt 0.839563 -0.026368
vt 0.883337 0.449553
vt 0.919706 0.419706
vt 0.949553 0.383337
vt 0.971731 0.341844
vt 0.990000 0.250000
vt 0.985388 0.203178
vt 0.971731 0.158156
vt 0.949553 0.116663
vt 0.919706 0.080294
vt 0.883337 0.050447
vt 0.841844 0.028269
vt 0.750000 0.010000
vt 0.703178 0.014612
vt 0.658156 0.028269
vt 0.616663 0.050447
vt 0.580294 0.080294
vt 0.550447 0.116663
vt 0.528269 0.158156
vt 0.510000 0.250000
vt 0.514612 0.296822
vt 0.528269 0.341844
vt 0.550447 0.383337
vt 0.580295 0.419706
vt 0.616663 0.449553
vt 0.655876 -0.026368
vn 0.9968 -0.0000 -0.0801
vn 0.9917 -0.0000 0.1286
vn 0.9445 -0.0000 0.3286
vn 0.8597 -0.0000 0.5107
vn 0.7439 -0.0000 0.6683
vn 0.6036 -0.0000 0.7973
vn 0.4450 -0.0000 0.8955
vn 0.2735 -0.0000 0.9619
vn 0.0936 -0.0000 0.9956
vn -0.0903 -0.0000 0.9959
vn -0.2737 -0.0000 0.9618
vn -0.4512 -0.0000 0.8924
vn -0.6163 -0.0000 0.7875
vn -0.7612 -0.0000 0.6485
vn -0.8777 -0.0000 0.4792
vn -0.9581 0.0000 0.2865
vn -0.9968 -0.0000 0.0801
vn -0.9917 0.0000 -0.1286
vn -0.9445 0.0000 -0.3286
vn -0.8597 0.0000 -0.5107
vn -0.7439 0.0000 -0.6683
vn -0.6036 0.0000 -0.7973
vn -0.4450 0.0000 -0.8955
vn -0.2735 0.0000 -0.9619
vn -0.0936 0.0000 -0.9956
vn 0.0903 0.0000 -0.9959
vn 0.2737 0.0000 -0.9618
vn 0.4512 0.0000 -0.8924
vn 0.6163 0.0000 -0.7875
vn 0.7612 0.0000 -0.6485
vn -0.0000 1.0000 0.0000
vn 0.8777 0.0000 -0.4792
vn 0.9581 0.0000 -0.2865
vn -0.0000 -1.0000 -0.0000
usemtl Material.002
s 1
f 65/99/35 66/100/35 67/101/35
f 68/102/36 69/103/36 66/100/36
f 70/104/37 71/105/37 69/103/37
f 72/106/38 73/107/38 71/105/38
f 74/108/39 75/109/39 73/107/39
f 76/110/40 77/111/40 75/109/40
f 78/112/41 79/113/41 77/111/41
f 80/114/42 81/115/42 79/113/42
f 82/116/43 83/117/43 81/115/43
f 84/118/44 85/119/44 83/117/44
f 86/120/45 87/121/45 85/119/45
f 88/122/46 89/123/46 87/121/46
f 90/124/47 91/125/47 89/123/47
f 92/126/48 93/127/48 91/125/48
f 94/128/49 95/129/49 93/127/49
f 96/130/50 97/131/50 95/129/50
f 98/132/51 99/133/51 97/131/51
f 100/134/52 101/135/52 99/133/52
f 102/136/53 103/137/53 101/135/53
f 104/138/54 105/139/54 103/137/54
f 106/140/55 107/141/55 105/139/55
f 108/142/56 109/143/56 107/141/56
f 110/144/57 111/145/57 109/143/57
f 112/146/58 113/147/58 111/145/58
f 114/148/59 115/149/59 113/147/59
f 116/150/60 117/151/60 115/149/60
f 118/152/61 119/153/61 117/151/61
f 120/154/62 121/155/62 119/153/62
f 122/156/63 123/157/63 121/155/63
f 124/158/64 125/159/64 123/157/64
f 118/160/65 102/161/65 86/162/65
f 126/163/66 127/164/66 125/159/66
f 128/165/67 67/166/67 127/164/67
f 79/167/68 95/168/68 111/169/68
f 65/99/35 68/102/35 66/100/35
f 68/102/36 70/104/36 69/103/36
f 70/104/37 72/106/37 71/105/37
f 72/106/38 74/108/38 73/107/38
f 74/108/39 76/110/39 75/109/39
f 76/110/40 78/112/40 77/111/40
f 78/112/41 80/114/41 79/113/41
f 80/114/42 82/116/42 81/115/42
f 82/116/43 84/118/43 83/117/43
f 84/118/44 86/120/44 85/119/44
f 86/120/45 88/122/45 87/121/45
f 88/122/46 90/124/46 89/123/46
f 90/124/47 92/126/47 91/125/47
f 126/163/66 128/165/66 127/164/66
f 128/165/67 65/170/67 67/166/67
f 92/126/48 94/128/48 93/127/48
f 94/128/49 96/130/49 95/129/49
f 96/130/50 98/132/50 97/131/50
f 98/132/51 100/134/51 99/133/51
f 100/134/52 102/136/52 101/135/52
f 102/136/53 104/138/53 103/137/53
f 104/138/54 106/140/54 105/139/54
f 106/140/55 108/142/55 107/141/55
f 108/142/56 110/144/56 109/143/56
f 110/144/57 112/146/57 111/145/57
f 112/146/58 114/148/58 113/147/58
f 114/148/59 116/150/59 115/149/59
f 116/150/60 118/152/60 117/151/60
f 118/152/61 120/154/61 119/153/61
f 120/154/62 122/156/62 121/155/62
f 122/156/63 124/158/63 123/157/63
f 124/158/64 126/163/64 125/159/64
f 70/171/65 68/172/65 65/173/65
f 65/173/65 128/174/65 70/171/65
f 128/174/65 126/175/65 70/171/65
f 126/175/65 124/176/65 122/177/65
f 122/177/65 120/178/65 118/160/65
f 118/160/65 116/179/65 114/180/65
f 114/180/65 112/181/65 118/160/65
f 112/181/65 110/182/65 118/160/65
f 110/182/65 108/183/65 102/161/65
f 108/183/65 106/184/65 102/161/65
f 106/184/65 104/185/65 102/161/65
f 102/161/65 100/186/65 98/187/65
f 98/187/65 96/188/65 94/189/65
f 94/189/65 92/190/65 90/191/65
f 90/191/65 88/192/65 86/162/65
f 86/162/65 84/193/65 82/194/65
f 82/194/65 80/195/65 86/162/65
f 80/195/65 78/196/65 86/162/65
f 78/196/65 76/197/65 74/198/65
f 74/198/65 72/199/65 70/171/65
f 126/175/65 122/177/65 70/171/65
f 122/177/65 118/160/65 70/171/65
f 102/161/65 98/187/65 86/162/65
f 98/187/65 94/189/65 86/162/65
f 94/189/65 90/191/65 86/162/65
f 78/196/65 74/198/65 86/162/65
f 74/198/65 70/171/65 86/162/65
f 118/160/65 110/182/65 102/161/65
f 70/171/65 118/160/65 86/162/65
f 127/200/68 67/201/68 66/202/68
f 66/202/68 69/203/68 71/204/68
f 71/204/68 73/205/68 75/206/68
f 75/206/68 77/207/68 71/204/68
f 77/207/68 79/167/68 71/204/68
f 79/167/68 81/208/68 83/209/68
f 83/209/68 85/210/68 79/167/68
f 85/210/68 87/211/68 79/167/68
f 87/211/68 89/212/68 95/168/68
f 89/212/68 91/213/68 95/168/68
f 91/213/68 93/214/68 95/168/68
f 95/168/68 97/215/68 99/216/68
f 99/216/68 101/217/68 103/218/68
f 103/218/68 105/219/68 107/220/68
f 107/220/68 109/221/68 111/169/68
f 111/169/68 113/222/68 115/223/68
f 115/223/68 117/224/68 119/225/68
f 119/225/68 121/226/68 127/200/68
f 121/226/68 123/227/68 127/200/68
f 123/227/68 125/228/68 127/200/68
f 127/200/68 66/202/68 71/204/68
f 95/168/68 99/216/68 111/169/68
f 99/216/68 103/218/68 111/169/68
f 103/218/68 107/220/68 111/169/68
f 111/169/68 115/223/68 127/200/68
f 115/223/68 119/225/68 127/200/68
f 127/200/68 71/204/68 79/167/68
f 79/167/68 87/211/68 95/168/68
f 127/200/68 79/167/68 111/169/68
