# Blender v2.90.1 OBJ File: ''
# www.blender.org
mtllib wall.mtl
o Cube
v -1.024714 -0.999730 -0.974936
v 0.974407 -0.991062 -1.033599
v -1.033109 1.000230 -0.965518
v 0.966011 1.008898 -1.024181
v -0.966011 -1.008898 1.024181
v 1.033109 -1.000230 0.965518
v -0.974407 0.991062 1.033599
v 1.024714 0.999730 0.974936
vt 1.003604 0.000000
vt 0.000957 0.997149
vt 0.000957 -0.004655
vt 0.994481 -0.010688
vt 0.000957 0.995772
vt 0.003238 0.000950
vt 0.996762 -0.005082
vt -0.001323 0.996722
vt 0.000957 -0.005082
vt 1.001323 0.000523
vt 0.003238 1.000000
vt -0.001323 -0.006459
vt 0.997644 -0.002755
vt -0.002722 0.996722
vt -0.000441 -0.000427
vt 0.998160 -0.012065
vt 0.000075 1.001377
vt -0.002206 -0.000427
vt 0.999043 0.997149
vt 0.996762 0.998099
vt 0.996762 0.999050
vt 1.001323 0.997672
vt 1.002206 0.996722
vt 1.000441 0.999050
vn 0.0042 -1.0000 -0.0047
vn 0.9996 0.0043 -0.0293
vn 0.0294 -0.0046 0.9996
vn -0.0042 1.0000 0.0047
vn -0.0294 0.0046 -0.9996
vn -0.9996 -0.0043 0.0293
usemtl Material
s off
f 5/1/1 2/2/1 6/3/1
f 2/4/2 8/5/2 6/6/2
f 7/7/3 6/8/3 8/9/3
f 3/10/4 8/11/4 4/12/4
f 1/13/5 4/14/5 2/15/5
f 5/16/6 3/17/6 1/18/6
f 5/1/1 1/19/1 2/2/1
f 2/4/2 4/20/2 8/5/2
f 7/7/3 5/21/3 6/8/3
f 3/10/4 7/22/4 8/11/4
f 1/13/5 3/23/5 4/14/5
f 5/16/6 7/24/6 3/17/6
